<svg width="335" height="300" viewBox="0 0 335 300" fill="none" xmlns="http://www.w3.org/2000/svg">
<path d="M197.733 1.30225C192.4 3.43559 194.133 6.10225 202 7.83559C212.267 10.1023 221.467 19.0356 224.533 29.8356C227.067 38.3689 230.267 39.5689 232.267 32.6356C234.4 24.3689 230.933 14.9023 223.2 7.96892C214.8 0.635586 205.467 -1.76442 197.733 1.30225Z" fill="black"/>
<path d="M154.933 22.6355C144.267 26.3689 137.467 30.7689 129.333 39.1689C120 48.7689 113.467 58.7689 108.667 70.9022C106.533 76.2355 104.667 80.9022 104.4 81.1689C104.267 81.4355 101.467 79.3022 98.1333 76.3689C88.6667 68.1022 75.2 65.4355 67.6 70.3689C59.2 75.9689 51.8667 89.9689 48 107.702C46.6667 113.702 44.8 119.702 43.8667 120.769C42.9333 121.969 34.1333 128.636 24.4 135.569C6 148.769 0 154.369 0 158.769C0 161.969 2.8 161.969 9.46667 158.636C12.2667 157.169 19.6 155.302 25.7333 154.502C31.7333 153.836 41.7333 151.969 48 150.502C68.4 145.702 72.2667 145.169 74.4 146.902C75.4667 147.836 79.2 152.769 82.6667 157.969C93.0667 173.436 105.2 181.169 118.8 181.302C130 181.302 140.267 173.702 147.2 160.102L149.6 155.702L153.733 160.769C161.2 170.236 173.733 181.302 180.8 184.769C189.867 189.169 200.267 189.569 206.8 185.836C214.267 181.436 219.067 170.369 219.733 155.702L220.4 143.702L224.533 144.502C261.067 151.302 290.133 145.302 306.133 127.569C311.467 121.569 316 111.436 316 105.302C316 99.5689 311.6 89.1689 306.667 83.7022C294 69.1689 270.267 66.3689 235.867 75.3022C228.4 77.1689 221.6 78.5022 220.667 78.1022C219.733 77.8355 218.8 72.9022 218.267 65.0355C216.933 45.3022 213.867 37.9689 203.067 29.8355C190.267 20.1022 170.267 17.0355 154.933 22.6355ZM190.667 30.3689C205.733 36.7689 210.4 45.0355 211.867 67.0355C213.2 87.5689 214.133 87.9689 239.6 81.7022C250.533 79.0355 257.467 78.1022 268.667 78.1022C281.867 77.9689 284.133 78.3689 290.933 81.5689C314.533 92.5022 312.533 119.569 287.067 131.436C272.133 138.502 254.667 140.102 231.467 136.636C219.6 134.902 217.867 134.902 215.067 136.636C211.6 139.036 211.733 138.102 211.467 153.969C210.933 189.969 187.6 190.769 159.867 155.569C154.8 149.169 149.733 143.969 148.8 143.969C146.267 143.969 144.4 146.636 142.133 153.169C138 164.769 128 173.702 118.8 173.702C108.4 173.702 95.4667 163.969 85.6 148.502C81.3333 141.702 76.9333 138.636 71.6 138.636C70 138.636 60.5333 140.369 50.6667 142.502C26 147.702 21.3333 148.502 21.3333 146.902C21.3333 146.102 27.4667 141.302 35.0667 136.236C42.5333 131.036 49.4667 125.569 50.4 124.102C51.3333 122.502 52.9333 117.169 54 112.236C57.7333 94.5022 65.0667 79.7022 72.1333 75.8355C79.0667 72.2355 93.0667 78.1022 99.0667 87.3022C102.4 92.6355 106.267 94.3689 108.667 91.8355C109.6 90.7689 111.6 85.7022 113.333 80.6355C121.333 55.0355 140.133 34.6355 161.2 28.5022C169.2 26.2355 183.067 27.0355 190.667 30.3689Z" fill="black"/>
<path d="M105.867 32.2353C104.4 33.9686 101.2 38.3686 98.9333 42.1019L94.6667 48.9019L87.8667 46.6353C80.6667 44.1019 76 44.5019 76 47.4353C76 48.3686 77.3333 49.8353 79.0667 50.7686C80.6667 51.5686 85.2 54.3686 88.9333 57.0353C98.8 63.5686 100.267 62.6353 107.2 44.9019C110.4 37.0353 112.667 30.3686 112.267 29.9686C110.8 28.5019 108.4 29.4353 105.867 32.2353Z" fill="black"/>
<path d="M21.6001 108.235C15.0667 115.302 7.46672 125.169 6.26672 128.235C5.06672 131.702 7.73339 132.635 10.9334 129.835C15.2001 125.969 30.0001 106.635 30.0001 105.035C30.0001 101.569 26.5334 102.902 21.6001 108.235Z" fill="black"/>
<path d="M35.2001 163.835C21.4668 168.769 17.0668 172.235 22.5335 173.969C25.0668 174.769 45.4668 167.969 48.8001 165.169C53.8668 161.035 45.7335 160.235 35.2001 163.835Z" fill="black"/>
<path d="M229.867 177.035C229.067 177.569 227.2 180.369 225.6 183.302C222.133 190.102 218.267 193.835 210.667 197.169C202.667 200.769 190.4 200.902 181.333 197.302C175.067 194.902 174.533 194.769 173.733 196.902C172.533 199.969 179.867 205.835 187.467 207.969C199.333 211.302 216.933 207.169 224.533 199.169C229.333 194.102 233.333 185.702 233.333 180.235C233.333 175.969 232.533 175.169 229.867 177.035Z" fill="black"/>
<path d="M281.333 196.236C281.333 197.169 283.6 202.636 286.267 208.369L291.2 218.902L288 221.436C286.133 222.769 284.4 223.969 284 223.969C283.6 223.969 280.667 219.036 277.333 213.169C272 203.436 267.6 198.636 265.733 200.502C265.333 200.769 267.333 207.836 270 215.969L274.933 230.769L267.2 238.369C260.133 245.036 259.6 245.836 262.267 246.236C263.867 246.636 268 245.569 271.467 244.102C274.933 242.502 277.867 241.302 278.133 241.302C279.067 241.302 285.333 256.236 285.333 258.369C285.333 259.569 282.533 263.036 279.067 266.102C275.467 269.169 273.2 272.236 273.733 272.769C274.267 273.302 278 272.769 281.867 271.436C285.867 270.102 289.6 269.302 290.4 269.836C291.2 270.236 294.933 276.502 298.667 283.702C307.067 299.436 310.8 303.169 312.4 297.169C312.8 295.569 310.8 287.569 307.733 278.902L302.4 263.436L305.467 260.902L308.533 258.502L315.067 271.169C319.867 280.636 322.267 283.969 324.133 283.969C327.733 283.969 327.467 277.036 323.333 262.102C321.467 255.569 320.133 250.102 320.4 249.969C324.133 248.102 334.667 237.702 334.667 235.836C334.667 232.369 332.267 232.636 323.6 237.302L316 241.302L311.733 233.036C309.333 228.369 307.067 224.102 306.8 223.569C306.533 222.902 309.467 219.569 313.2 216.102C316.933 212.636 320 209.036 320 208.236C320 204.769 315.733 205.169 308.667 209.169C304.667 211.436 300.933 213.302 300.4 213.302C299.733 213.302 296.4 209.702 292.8 205.302C286.133 196.902 281.333 193.169 281.333 196.236ZM298 234.102C299.2 235.969 301.067 239.969 302.133 243.036C304 248.102 303.867 248.769 301.733 250.236C300.533 251.169 298.933 251.969 298.4 251.969C297.733 251.969 295.333 247.969 292.933 243.169C288.8 234.636 288.667 234.369 291.2 232.502C294.8 229.969 295.333 230.102 298 234.102Z" fill="black"/>
</svg>
