<svg width="286" height="237" viewBox="0 0 286 237" fill="none" xmlns="http://www.w3.org/2000/svg">
<g clip-path="url(#clip0_2201_51)">
<path d="M267.86 17.67C256.79 6.6 221.43 19.84 197.01 31.01C180.58 23.58 162.11 19.51 142.95 19.51C123.79 19.51 105.32 23.58 88.89 31.01C64.47 19.84 29.1 6.6 18.03 17.67C6.95999 28.74 19.32 68.75 29.41 94.49C26.06 104.51 24.23 115.3 24.23 126.72C24.23 189.84 79.83 223.29 142.95 223.29C206.07 223.29 261.67 189.84 261.67 126.72C261.67 115.3 259.84 104.51 256.49 94.49C266.58 68.75 279.35 29.16 267.87 17.67H267.86Z" fill="#FEFEFE"/>
<path d="M268.85 31.6899C268.84 31.1799 268.81 30.6799 268.78 30.1999C268.77 30.0399 268.76 29.8799 268.75 29.7199C268.71 29.2499 268.67 28.7999 268.61 28.3599C268.59 28.2199 268.58 28.0799 268.56 27.9499C268.48 27.3899 268.4 26.8599 268.29 26.3399C268.29 26.2999 268.27 26.2599 268.26 26.2199C268.16 25.7699 268.06 25.3399 267.94 24.9199C267.89 24.7299 267.83 24.5599 267.77 24.3799C267.69 24.1199 267.6 23.8699 267.51 23.6299C267.43 23.4299 267.35 23.2399 267.27 23.0599C267.18 22.8599 267.09 22.6599 267 22.4699C266.91 22.2799 266.81 22.0999 266.71 21.9199C266.62 21.7599 266.51 21.5999 266.41 21.4499C266.3 21.2799 266.18 21.0999 266.06 20.9399C265.97 20.8199 265.87 20.7099 265.77 20.5999C265.64 20.4499 265.52 20.2799 265.38 20.1399C265.2 19.9599 264.99 19.7999 264.79 19.6299C264.74 19.5899 264.69 19.5399 264.64 19.4999C264.44 19.3499 264.22 19.1999 264 19.0599C263.92 19.0099 263.83 18.9499 263.75 18.8999C263.52 18.7599 263.28 18.6399 263.03 18.5099C262.94 18.4699 262.86 18.4299 262.77 18.3899C262.5 18.2699 262.22 18.1499 261.93 18.0399C261.87 18.0199 261.81 17.9999 261.75 17.9799C259.8 17.2899 257.4 16.9299 254.54 16.9299C252.71 16.9299 250.69 17.0799 248.52 17.3599C248.51 17.3599 248.5 17.3599 248.49 17.3599C247.94 17.4299 247.37 17.5099 246.79 17.5999C246.62 17.6299 246.44 17.6499 246.27 17.6799C245.74 17.7699 245.21 17.8499 244.67 17.9599C244.41 18.0099 244.14 18.0599 243.87 18.1199C243.18 18.2499 242.49 18.3999 241.77 18.5499C241.2 18.6699 240.63 18.7999 240.04 18.9399C239.73 19.0099 239.42 19.0899 239.11 19.1699C238.48 19.3199 237.85 19.4799 237.21 19.6499C236.96 19.7199 236.7 19.7799 236.44 19.8499C235.6 20.0699 234.75 20.3099 233.89 20.5599C233.84 20.5799 233.78 20.5899 233.73 20.5999C233.71 20.5999 233.7 20.6099 233.68 20.6199C232.56 20.9499 231.41 21.2899 230.24 21.6599C230.21 21.6599 230.18 21.6799 230.15 21.6899C229.05 22.0399 227.93 22.3999 226.79 22.7799C226.64 22.8299 226.5 22.8799 226.35 22.9299C224.01 23.7199 221.59 24.5899 219.08 25.5299C218.97 25.5699 218.87 25.6099 218.76 25.6499C218.48 25.7599 218.19 25.8699 217.91 25.9699C217.53 26.1199 217.15 26.2599 216.77 26.4099C215.69 26.8299 214.61 27.2499 213.5 27.6999C212.81 27.9799 212.1 28.2699 211.39 28.5599C211.28 28.5999 211.18 28.6499 211.07 28.6899C207.03 30.3499 202.84 32.1699 198.45 34.1799L197 34.8399L195.55 34.1799C184.44 29.1599 174.43 25.7799 163.24 24.1399C158.77 23.4899 154.11 23.0999 149.11 23.0199C149.13 23.1099 149.15 23.1899 149.17 23.2799C146.43 23.1099 143.68 23.0099 140.93 23.0099C138.18 23.0099 130.43 23.1099 127.69 23.2799C127.71 23.1999 127.73 23.1199 127.74 23.0399C125.95 23.0699 124.3 23.1399 122.76 23.2399C109.24 24.1499 104.26 27.8799 90.3201 34.1799H90.3001L88.8501 34.8399L87.4001 34.1799C87.3001 34.1399 87.2101 34.0899 87.1101 34.0499C85.8101 33.4599 84.5301 32.8799 83.2601 32.3199C82.4401 31.9499 81.6301 31.6099 80.82 31.2499C80.34 31.0399 79.8601 30.8299 79.39 30.6299C78.34 30.1799 77.31 29.7399 76.28 29.3199C76.1101 29.2499 75.94 29.1799 75.77 29.0999C74.62 28.6199 73.48 28.1499 72.35 27.6999C61.17 23.1999 51.44 20.0799 43.44 18.3999C43.32 18.3799 43.2101 18.3499 43.09 18.3299C42.32 18.1699 41.56 18.0199 40.83 17.8899C40.6 17.8499 40.38 17.8099 40.15 17.7699C39.5201 17.6599 38.9001 17.5599 38.2901 17.4699C37.9601 17.4199 37.63 17.3799 37.31 17.3399C36.82 17.2799 36.33 17.2099 35.85 17.1599C35.3901 17.1099 34.9501 17.0799 34.51 17.0499C34.18 17.0299 33.85 16.9899 33.5301 16.9699C32.7701 16.9299 32.03 16.8999 31.32 16.8999C27.83 16.8999 25.01 17.4199 22.8801 18.4599C21.9501 18.9099 21.13 19.4499 20.48 20.1099C20.22 20.3699 19.98 20.6599 19.75 20.9699C19.68 21.0599 19.6201 21.1599 19.5601 21.2499C19.4001 21.4799 19.25 21.7199 19.11 21.9699C19.04 22.0899 18.98 22.2199 18.91 22.3399C18.78 22.5899 18.66 22.8599 18.54 23.1299C18.48 23.2599 18.43 23.3999 18.37 23.5299C18.25 23.8399 18.14 24.1699 18.03 24.5099C17.99 24.6199 17.96 24.7299 17.92 24.8499C17.65 25.7899 17.4401 26.8299 17.2801 27.9599C17.2701 28.0599 17.26 28.1599 17.25 28.2599C17.19 28.7299 17.14 29.2199 17.1 29.7299C17.09 29.8699 17.0801 30.0099 17.0701 30.1499C17.0401 30.6499 17.01 31.1599 17 31.6799C17 31.8099 17 31.9399 17 32.0799C16.99 32.6899 17 33.3099 17 33.9599C17 34.0099 17 34.0499 17 34.0999C17.06 36.2999 17.2501 38.7099 17.5901 41.3199C17.5901 41.3699 17.6001 41.4199 17.6101 41.4699C17.7201 42.3099 17.84 43.1699 17.98 44.0399C17.98 44.0699 17.98 44.0999 17.99 44.1299C19.44 53.3399 22.46 64.7199 26.96 77.7999C27.02 77.9699 27.08 78.1399 27.14 78.3199C28.17 81.2899 29.2701 84.3399 30.4501 87.4799C30.5801 87.8199 30.71 88.1599 30.84 88.5099C31.42 90.0499 32.02 91.6099 32.64 93.1899L33.1 94.3699L32.7001 95.5699C29.7101 104.5 28.0601 113.87 27.76 123.48C27.7301 124.55 27.7001 125.62 27.7001 126.69C27.7001 128.05 27.7301 129.4 27.7901 130.74C27.7901 130.84 27.7901 130.93 27.7901 131.02C27.9701 135.24 28.43 139.35 29.14 143.35C30.62 151.69 30.2701 154.52 34 161.77C63.5 161.38 98.7701 152.75 124.51 127.01C130.83 120.69 136.43 113.97 141.27 107C142.07 105.84 143.77 105.84 144.57 107C149.42 113.97 155.01 120.69 161.33 127.01C187.07 152.75 223.34 161.38 252.84 161.77C256.57 154.52 255.22 151.69 256.7 143.34C257.43 139.26 257.88 135.06 258.05 130.74C258.05 130.74 258.1 130.77 258.13 130.79C258.13 128.63 258.13 127.08 258.13 126.71C258.13 126.71 258.13 126.71 258.13 126.7C258.13 115.96 256.45 105.49 253.13 95.5699L252.73 94.3699L253.19 93.1899C263.14 67.7799 268.49 47.2299 268.82 34.0899C268.82 34.0499 268.82 34.0199 268.82 33.9799C268.83 33.3299 268.84 32.6999 268.82 32.0799C268.82 31.9399 268.82 31.7999 268.82 31.6699L268.85 31.6899Z" fill="#E7BC70"/>
<path fill-rule="evenodd" clip-rule="evenodd" d="M88.9065 27.1722C105.424 19.9482 123.861 16.01 142.95 16.01C162.039 16.01 180.476 19.9481 196.994 27.1722C209 21.7367 223.529 15.8738 236.592 12.6047C243.376 10.9068 249.944 9.86169 255.647 10.0147C260.729 10.151 265.586 11.2543 269.195 14.17H269.321L270.346 15.1962C274.138 18.9919 275.577 24.6992 275.85 30.7424C276.129 36.8856 275.233 44.0373 273.696 51.4472C270.709 65.8429 265.163 81.8451 260.207 94.5937C263.423 104.626 265.17 115.38 265.17 126.72C265.17 159.444 250.7 184.604 228.073 201.481C205.545 218.283 175.079 226.79 142.95 226.79C110.821 226.79 80.3553 218.283 57.8274 201.481C35.2001 184.604 20.73 159.444 20.73 126.72C20.73 115.38 22.4772 104.626 25.6934 94.5932C20.7353 81.8186 15.2898 65.718 12.3551 51.2757C10.8448 43.8432 9.96495 36.6877 10.2222 30.5764C10.4742 24.588 11.845 18.9053 15.5551 15.1951C19.2426 11.5076 24.6045 10.166 30.2441 10.0147C35.9482 9.86169 42.5175 10.9068 49.3033 12.6047C62.3687 15.8738 76.8994 21.7366 88.9065 27.1722ZM30.4318 17.0122C25.5631 17.1428 22.3524 18.2974 20.5049 20.1449C18.68 21.9697 17.4446 25.4395 17.216 30.8708C16.9926 36.1791 17.7577 42.7105 19.2149 49.8818C22.1246 64.2008 27.6559 80.4251 32.6686 93.2126L33.1321 94.3952L32.7294 95.5998C29.4987 105.263 27.73 115.678 27.73 126.72C27.73 157.116 41.0599 180.241 62.0126 195.869C83.0647 211.572 111.959 219.79 142.95 219.79C173.941 219.79 202.835 211.572 223.887 195.869C244.84 180.241 258.17 157.116 258.17 126.72C258.17 115.678 256.401 105.263 253.171 95.5998L252.768 94.3952L253.231 93.2126C258.253 80.4033 263.883 64.2868 266.842 50.0253C268.323 42.8839 269.098 36.375 268.857 31.0592C268.621 25.8482 267.436 22.3644 265.612 20.3719L265.385 20.1449C263.538 18.2973 260.327 17.1428 255.46 17.0122C250.656 16.8833 244.783 17.7707 238.291 19.3953C225.328 22.6394 210.613 28.6364 198.466 34.1928L197.018 34.855L195.568 34.1991C179.595 26.9757 161.617 23.01 142.95 23.01C124.283 23.01 106.305 26.9757 90.3322 34.1991L88.8817 34.855L87.4341 34.1928C75.2868 28.6365 60.5697 22.6394 47.6042 19.3953C41.1113 17.7707 35.2362 16.8833 30.4318 17.0122Z" fill="#462104"/>
</g>
<g clip-path="url(#clip1_2201_51)">
<path d="M116.06 124.01C114.97 124.01 113.89 123.5 113.21 122.55C104.34 110.13 87.11 112.13 86.94 112.15C85.03 112.39 83.27 111.03 83.03 109.12C82.78 107.2 84.13 105.45 86.05 105.21C86.92 105.1 107.57 102.61 118.91 118.48C120.03 120.05 119.67 122.24 118.1 123.36C117.48 123.8 116.77 124.01 116.07 124.01H116.06Z" fill="#462104"/>
<path d="M170.84 124.01C170.14 124.01 169.42 123.8 168.81 123.36C167.24 122.24 166.87 120.05 168 118.48C179.33 102.61 199.99 105.09 200.86 105.21C202.78 105.46 204.13 107.21 203.88 109.13C203.63 111.05 201.88 112.4 199.97 112.15C199.74 112.12 182.55 110.16 173.7 122.54C173.02 123.5 171.94 124 170.85 124L170.84 124.01Z" fill="#462104"/>
</g>
<path d="M143.5 137C147.09 137 150 134.761 150 132C150 129.239 147.09 127 143.5 127C139.91 127 137 129.239 137 132C137 134.761 139.91 137 143.5 137Z" fill="#656570"/>
<g clip-path="url(#clip2_2201_51)">
<path d="M144.34 151.8C144.11 151.8 143.88 151.78 143.65 151.78C143.05 151.78 142.47 151.81 141.9 151.85C138.15 152.13 135.16 153.23 133.65 154.07C133.83 154.42 134.06 154.81 134.31 155.23C136.22 158.34 139.99 162.79 143.65 162.79C147.31 162.79 150.94 158.51 152.88 155.42C153.18 154.94 153.44 154.48 153.65 154.08C152 153.16 148.57 151.94 144.34 151.82V151.8Z" fill="#E29FA5"/>
<path d="M171.19 143.95C169.78 142.63 167.57 142.7 166.24 144.11C166.22 144.14 163.76 146.69 160.01 147.96C159.29 148.2 158.58 148.38 157.86 148.49C154.12 149.09 150.44 147.91 146.87 144.97C146.48 144.65 146.09 144.31 145.7 143.95C144.98 143.28 144.06 142.97 143.14 143.01C142.23 142.97 141.3 143.27 140.58 143.95C140.12 144.38 139.66 144.77 139.21 145.13C135.56 148.05 132.15 148.84 129.24 148.61C124.18 148.21 120.63 144.73 120.03 144.1C118.72 142.7 116.51 142.63 115.11 143.95C113.7 145.27 113.63 147.49 114.95 148.9C115.1 149.06 118.59 152.74 124.03 154.59C124.83 154.86 125.7 155.09 126.62 155.28C128.41 160.15 135.23 169.78 143.65 169.78C152.07 169.78 159.12 159.82 160.77 155.03C161.29 154.89 161.8 154.75 162.27 154.58C167.71 152.73 171.21 149.04 171.35 148.89C172.67 147.48 172.6 145.26 171.19 143.94V143.95ZM143.65 162.78C139.99 162.78 136.21 158.33 134.31 155.22C134.06 154.81 133.83 154.41 133.65 154.06C135.16 153.22 138.15 152.12 141.9 151.84C142.47 151.8 143.05 151.77 143.65 151.77C143.89 151.77 144.11 151.79 144.34 151.79C148.57 151.92 152 153.13 153.65 154.05C153.44 154.45 153.18 154.91 152.88 155.39C150.94 158.48 147.24 162.76 143.65 162.76V162.78Z" fill="#462104"/>
</g>
<defs>
<clipPath id="clip0_2201_51">
<rect width="265.9" height="216.79" fill="white" transform="translate(10 10)"/>
</clipPath>
<clipPath id="clip1_2201_51">
<rect width="120.91" height="19.01" fill="white" transform="translate(83 105)"/>
</clipPath>
<clipPath id="clip2_2201_51">
<rect width="58.3" height="26.78" fill="white" transform="translate(114 143)"/>
</clipPath>
</defs>
</svg>
