<svg width="286" height="237" viewBox="0 0 286 237" fill="none" xmlns="http://www.w3.org/2000/svg">
<g clip-path="url(#clip0_14_248)">
<path d="M267.86 17.67C256.79 6.6 221.43 19.84 197.01 31.01C180.58 23.58 162.11 19.51 142.95 19.51C123.79 19.51 105.32 23.58 88.89 31.01C64.47 19.84 29.1 6.6 18.03 17.67C6.95999 28.74 19.32 68.75 29.41 94.49C26.06 104.51 24.23 115.3 24.23 126.72C24.23 189.84 79.83 223.29 142.95 223.29C206.07 223.29 261.67 189.84 261.67 126.72C261.67 115.3 259.84 104.51 256.49 94.49C266.58 68.75 279.35 29.16 267.87 17.67H267.86Z" fill="#FEFEFE"/>
<path fill-rule="evenodd" clip-rule="evenodd" d="M88.9065 27.1722C105.424 19.9482 123.861 16.01 142.95 16.01C162.039 16.01 180.476 19.9482 196.994 27.1722C209 21.7367 223.529 15.8739 236.592 12.6047C243.376 10.9068 249.944 9.8617 255.647 10.0147C260.729 10.1511 265.586 11.2543 269.195 14.17H269.321L270.346 15.1962C274.138 18.9919 275.577 24.6992 275.85 30.7424C276.129 36.8856 275.233 44.0373 273.696 51.4472C270.709 65.8429 265.163 81.8451 260.207 94.5937C263.423 104.626 265.17 115.38 265.17 126.72C265.17 159.444 250.7 184.604 228.073 201.481C205.545 218.283 175.079 226.79 142.95 226.79C110.821 226.79 80.3553 218.283 57.8274 201.481C35.2001 184.604 20.73 159.444 20.73 126.72C20.73 115.38 22.4772 104.626 25.6934 94.5932C20.7353 81.8186 15.2898 65.718 12.3551 51.2757C10.8448 43.8432 9.96495 36.6877 10.2222 30.5764C10.4742 24.588 11.845 18.9053 15.5551 15.1951C19.2426 11.5076 24.6045 10.166 30.2441 10.0147C35.9482 9.8617 42.5175 10.9068 49.3033 12.6047C62.3687 15.8738 76.8994 21.7367 88.9065 27.1722ZM30.4318 17.0122C25.5631 17.1428 22.3524 18.2974 20.5049 20.1449C18.68 21.9697 17.4446 25.4395 17.216 30.8708C16.9926 36.1791 17.7577 42.7106 19.2149 49.8818C22.1246 64.2008 27.6559 80.4251 32.6686 93.2127L33.1321 94.3952L32.7294 95.5998C29.4987 105.263 27.73 115.678 27.73 126.72C27.73 157.116 41.0599 180.242 62.0126 195.869C83.0647 211.572 111.959 219.79 142.95 219.79C173.941 219.79 202.835 211.572 223.887 195.869C244.84 180.242 258.17 157.116 258.17 126.72C258.17 115.678 256.401 105.263 253.171 95.5998L252.768 94.3952L253.231 93.2127C258.253 80.4033 263.883 64.2868 266.842 50.0253C268.323 42.884 269.098 36.3751 268.857 31.0592C268.621 25.8482 267.436 22.3644 265.612 20.3719L265.385 20.1449C263.538 18.2973 260.327 17.1428 255.46 17.0122C250.656 16.8833 244.783 17.7707 238.291 19.3953C225.328 22.6394 210.613 28.6364 198.466 34.1928L197.018 34.855L195.568 34.1991C179.595 26.9758 161.617 23.01 142.95 23.01C124.283 23.01 106.305 26.9758 90.3322 34.1991L88.8817 34.855L87.4341 34.1928C75.2868 28.6365 60.5697 22.6395 47.6042 19.3953C41.1113 17.7707 35.2362 16.8833 30.4318 17.0122Z" fill="#462104"/>
</g>
<g clip-path="url(#clip1_14_248)">
<path d="M108.15 115.43C108.15 121.82 102.97 127 96.58 127C90.19 127 85 121.82 85 115.43C85 109.04 88.7 102 96.57 102C103.51 102 108.14 109.03 108.14 115.43H108.15Z" fill="#462104"/>
<path d="M201.67 115.43C201.67 121.82 196.49 127 190.1 127C183.71 127 178.53 121.82 178.53 115.43C178.53 109.04 182.23 102 190.1 102C197.04 102 201.67 109.03 201.67 115.43Z" fill="#462104"/>
</g>
<path d="M143.5 137C147.09 137 150 134.761 150 132C150 129.239 147.09 127 143.5 127C139.91 127 137 129.239 137 132C137 134.761 139.91 137 143.5 137Z" fill="#E29FA5"/>
<path d="M171.19 151.95C169.78 150.63 167.57 150.7 166.24 152.11C166.22 152.14 163.76 154.69 160.01 155.96C155.13 157.62 150.31 156.27 145.7 151.95C144.98 151.28 144.06 150.97 143.14 151.01C142.23 150.97 141.3 151.27 140.58 151.95C129.98 161.89 121.02 153.14 120.03 152.1C118.72 150.7 116.51 150.63 115.11 151.95C113.7 153.27 113.63 155.49 114.95 156.9C115.1 157.06 118.59 160.74 124.03 162.59C125.84 163.21 127.99 163.67 130.38 163.67C134.18 163.67 138.58 162.5 143.15 158.96C147.73 162.5 152.12 163.67 155.92 163.67C158.31 163.67 160.46 163.21 162.27 162.59C167.71 160.74 171.21 157.05 171.35 156.9C172.67 155.49 172.6 153.27 171.19 151.95Z" fill="#462104"/>
<defs>
<clipPath id="clip0_14_248">
<rect width="265.9" height="216.79" fill="white" transform="translate(10 10)"/>
</clipPath>
<clipPath id="clip1_14_248">
<rect width="116.67" height="25" fill="white" transform="translate(85 102)"/>
</clipPath>
</defs>
</svg>
