<svg width="200" height="200" viewBox="0 0 200 200" fill="none" xmlns="http://www.w3.org/2000/svg">
<rect width="200" height="200" rx="100" fill="#1B00FF"/>
<g clip-path="url(#clip0_3799_9036)">
<path d="M131.817 48.6595C136.091 48.6595 139.564 45.1449 139.564 40.827C139.564 36.509 136.091 33 131.817 33C127.544 33.0223 124.071 36.5313 124.071 40.8493C124.071 45.1672 127.544 48.6595 131.817 48.6595ZM134.102 69.0108C135.855 68.9975 137.531 68.2913 138.761 67.0474C139.991 65.8036 140.675 64.124 140.661 62.3782C140.661 58.7297 137.726 55.7451 134.102 55.7451C130.478 55.7451 127.544 58.7074 127.544 62.3782C127.544 66.049 130.473 69.0108 134.102 69.0108ZM152.11 71.6049C155.717 71.6049 158.652 68.6426 158.652 64.9885C158.652 61.3344 155.717 58.3721 152.11 58.3721C148.503 58.3721 145.568 61.3344 145.568 64.9885C145.568 68.6426 148.509 71.6049 152.11 71.6049ZM149.948 89.0162C153.04 89.0162 155.544 86.4834 155.544 83.3649C155.544 80.2464 153.04 77.7136 149.948 77.7136C146.856 77.7136 144.352 80.2464 144.352 83.3649C144.352 86.4834 146.856 89.0162 149.948 89.0162ZM164.365 94.6619C167.479 94.6619 170 92.1124 170 88.9715C170 85.8307 167.479 83.2812 164.365 83.2812C163.62 83.2863 162.883 83.4376 162.197 83.7263C161.51 84.015 160.888 84.4356 160.365 84.964C159.841 85.4924 159.428 86.1183 159.147 86.8059C158.867 87.4935 158.725 88.2294 158.731 88.9715C158.731 92.1124 161.257 94.6619 164.365 94.6619ZM131.828 86.6619C132.586 86.6576 133.335 86.5046 134.034 86.2118C134.732 85.9189 135.365 85.492 135.898 84.9553C136.431 84.4186 136.852 83.7827 137.138 83.0839C137.423 82.385 137.568 81.6369 137.564 80.8824V80.8712C137.564 77.6746 135.004 75.0805 131.828 75.0805C128.653 75.0805 126.093 77.669 126.093 80.8712C126.093 84.0511 128.658 86.6619 131.828 86.6619ZM126.631 100.514C129.291 100.514 131.436 98.3382 131.436 95.666C131.447 94.3907 130.948 93.1635 130.05 92.2543C129.152 91.3452 127.928 90.8286 126.648 90.8181H126.631C123.97 90.8181 121.825 92.9938 121.825 95.666C121.825 98.3382 123.97 100.514 126.631 100.514ZM144.666 102.963C145.296 102.959 145.92 102.831 146.5 102.587C147.081 102.342 147.608 101.987 148.05 101.54C148.493 101.093 148.843 100.563 149.08 99.9816C149.317 99.3999 149.437 98.7775 149.433 98.1497V98.138C149.433 95.4713 147.304 93.3124 144.666 93.3124C142.028 93.3124 139.9 95.4713 139.9 98.138C139.891 98.7635 140.007 99.3845 140.24 99.9656C140.473 100.547 140.818 101.076 141.257 101.524C141.695 101.972 142.218 102.33 142.795 102.577C143.372 102.824 143.992 102.955 144.62 102.963H144.666ZM159.044 108.586C161.705 108.586 163.85 106.411 163.85 103.722C163.85 101.033 161.705 98.8571 159.044 98.8571C156.384 98.8571 154.238 101.033 154.238 103.722C154.225 104.999 154.721 106.228 155.618 107.141C156.515 108.053 157.739 108.573 159.021 108.586H159.044ZM151.942 119.097C154.188 119.097 156.003 117.25 156.003 114.996C156.003 112.743 154.188 110.896 151.942 110.896C149.696 110.896 147.881 112.743 147.881 114.996C147.881 117.25 149.696 119.097 151.942 119.097ZM137.497 113.563C139.782 113.563 141.653 111.677 141.653 109.362C141.653 107.047 139.799 105.161 137.497 105.161C135.195 105.161 133.341 107.047 133.341 109.362C133.341 111.677 135.211 113.563 137.497 113.563ZM119.483 110.996C120.58 110.979 121.626 110.534 122.395 109.756C123.165 108.978 123.596 107.93 123.597 106.837C123.598 105.745 123.167 104.697 122.399 103.918C121.631 103.139 120.585 102.692 119.489 102.673H119.483C118.387 102.69 117.341 103.136 116.572 103.914C115.802 104.692 115.371 105.74 115.37 106.832C115.369 107.924 115.8 108.973 116.568 109.752C117.336 110.531 118.382 110.978 119.478 110.996H119.483ZM129.498 120.871C131.487 120.871 133.083 119.242 133.083 117.261C133.092 116.313 132.722 115.4 132.055 114.723C131.389 114.046 130.479 113.661 129.527 113.652H129.498C127.51 113.652 125.914 115.281 125.914 117.261C125.903 118.208 126.271 119.12 126.936 119.797C127.6 120.474 128.508 120.86 129.459 120.871H129.498ZM143.938 126.5C145.926 126.5 147.562 124.871 147.562 122.851C147.562 120.832 145.949 119.203 143.938 119.203C142.966 119.203 142.035 119.587 141.348 120.271C140.661 120.956 140.275 121.884 140.275 122.851C140.275 123.819 140.661 124.747 141.348 125.431C142.035 126.115 142.966 126.5 143.938 126.5ZM135.805 130.723C137.379 130.723 138.662 129.429 138.662 127.839C138.666 127.079 138.368 126.349 137.832 125.808C137.297 125.267 136.568 124.96 135.805 124.954C134.231 124.954 132.949 126.249 132.949 127.839C132.947 128.597 133.246 129.326 133.781 129.866C134.316 130.406 135.044 130.714 135.805 130.723ZM128.098 132.988C128.439 132.986 128.777 132.917 129.091 132.785C129.406 132.653 129.691 132.46 129.931 132.218C130.17 131.977 130.36 131.69 130.489 131.375C130.617 131.06 130.682 130.724 130.68 130.384V130.377C130.68 128.926 129.515 127.766 128.098 127.766C127.757 127.768 127.419 127.837 127.105 127.969C126.79 128.101 126.505 128.294 126.265 128.536C126.026 128.777 125.836 129.064 125.707 129.379C125.579 129.693 125.514 130.03 125.516 130.37V130.377C125.504 131.057 125.764 131.715 126.239 132.204C126.713 132.694 127.364 132.975 128.047 132.987L128.098 132.988ZM121.349 125.479C123.046 125.479 124.424 124.084 124.424 122.377C124.424 120.67 123.046 119.275 121.349 119.275C119.652 119.275 118.274 120.67 118.274 122.377C118.272 123.193 118.594 123.977 119.17 124.558C119.746 125.139 120.529 125.47 121.349 125.479ZM111.446 118.366C113.417 118.366 115.031 116.759 115.031 114.756C115.031 112.754 113.434 111.147 111.446 111.147C109.474 111.147 107.861 112.754 107.861 114.756C107.86 115.707 108.236 116.621 108.907 117.297C109.579 117.973 110.491 118.357 111.446 118.366ZM140.813 163.587C145.069 163.587 148.52 160.095 148.52 155.794C148.52 151.493 145.069 148 140.813 148C136.556 148 133.105 151.493 133.105 155.794C133.105 160.095 136.556 163.587 140.813 163.587ZM121.237 153.724C124.782 153.724 127.661 150.817 127.661 147.23C127.661 143.643 124.782 140.737 121.237 140.737C117.691 140.737 114.812 143.643 114.812 147.23C114.812 150.817 117.686 153.724 121.237 153.724ZM110.051 168C113.636 168 116.532 165.077 116.532 161.445C116.532 157.836 113.636 154.89 110.051 154.89C106.466 154.89 103.571 157.813 103.571 161.445C103.557 163.17 104.232 164.83 105.448 166.059C106.663 167.288 108.319 167.987 110.051 168H110.051ZM106.685 141.696C107.428 141.691 108.162 141.54 108.847 141.252C109.531 140.965 110.152 140.545 110.674 140.018C111.195 139.491 111.608 138.867 111.887 138.182C112.167 137.496 112.308 136.763 112.303 136.023C112.308 135.283 112.167 134.549 111.887 133.863C111.608 133.178 111.195 132.554 110.674 132.027C110.152 131.5 109.531 131.081 108.847 130.793C108.162 130.505 107.428 130.354 106.685 130.349C105.942 130.354 105.207 130.505 104.523 130.793C103.839 131.081 103.218 131.5 102.696 132.027C102.175 132.554 101.762 133.178 101.483 133.863C101.203 134.549 101.062 135.283 101.067 136.023C101.073 139.147 103.593 141.696 106.685 141.696ZM95.5275 156.167C98.6193 156.167 101.123 153.635 101.123 150.516C101.123 147.398 98.6193 144.865 95.5275 144.865C92.4357 144.865 89.932 147.398 89.932 150.516C89.9172 152 90.4948 153.429 91.5377 154.489C92.5806 155.549 94.0035 156.152 95.4933 156.167H95.5275ZM83.5019 165.986C86.5937 165.986 89.0806 163.453 89.0806 160.352C89.0806 157.233 86.5769 154.717 83.5019 154.717C80.4101 154.717 77.9232 157.25 77.9232 160.352C77.9232 163.453 80.4269 165.986 83.5019 165.986ZM73.4927 153.205C74.7639 153.194 75.9789 152.681 76.872 151.78C77.7652 150.879 78.2639 149.663 78.2593 148.396C78.2593 145.746 76.1308 143.587 73.4927 143.587C72.2249 143.607 71.0156 144.122 70.1259 145.022C69.2362 145.921 68.7375 147.133 68.7375 148.396C68.7375 149.659 69.2362 150.871 70.1259 151.771C71.0156 152.671 72.2249 153.186 73.4927 153.205ZM85.5407 143.342C86.8128 143.333 88.0294 142.822 88.9231 141.92C89.8169 141.018 90.3147 139.8 90.3073 138.533C90.3073 135.866 88.1788 133.724 85.5407 133.724C84.2728 133.741 83.0625 134.254 82.1711 135.152C81.2797 136.051 80.7789 137.262 80.7767 138.525C80.7744 139.788 81.2711 141.001 82.1593 141.902C83.0476 142.804 84.2561 143.321 85.5239 143.342H85.5407ZM96.7822 128.876C97.4125 128.872 98.0357 128.744 98.6164 128.5C99.1971 128.256 99.7237 127.9 100.166 127.453C100.609 127.006 100.959 126.477 101.196 125.895C101.433 125.313 101.553 124.691 101.549 124.063V124.051C101.549 121.385 99.4203 119.226 96.7822 119.226C96.1519 119.23 95.5286 119.358 94.9479 119.602C94.3673 119.846 93.8406 120.202 93.398 120.649C92.9554 121.096 92.6055 121.625 92.3683 122.207C92.1311 122.789 92.0112 123.411 92.0156 124.039V124.051C92.0156 126.717 94.144 128.876 96.7822 128.876ZM79.5867 130.868C81.872 130.868 83.7259 129.005 83.7259 126.689C83.7259 124.374 81.872 122.511 79.5867 122.511C77.3015 122.511 75.4475 124.374 75.4475 126.689C75.4475 129.005 77.3015 130.868 79.5867 130.868ZM67.6003 140.692C68.1417 140.689 68.6772 140.58 69.1762 140.371C69.6752 140.162 70.128 139.857 70.5088 139.474C70.8895 139.09 71.1907 138.636 71.3951 138.137C71.5996 137.637 71.7033 137.103 71.7003 136.564V136.553C71.7108 135.465 71.2871 134.418 70.5225 133.642C69.7579 132.866 68.7151 132.424 67.6233 132.413H67.6003C67.059 132.416 66.5235 132.525 66.0244 132.734C65.5254 132.943 65.0726 133.248 64.6919 133.632C64.3111 134.015 64.01 134.469 63.8055 134.968C63.6011 135.468 63.4973 136.002 63.5003 136.541V136.553C63.4966 137.093 63.5997 137.628 63.8038 138.128C64.0078 138.628 64.3088 139.084 64.6895 139.468C65.0703 139.853 65.5233 140.158 66.0227 140.368C66.5221 140.578 67.0582 140.688 67.6003 140.692ZM64.8446 129.178C65.7894 129.17 66.6929 128.79 67.3573 128.121C68.0217 127.452 68.3931 126.548 68.3901 125.607C68.3901 123.627 66.7938 122.037 64.8446 122.037C62.8954 122.037 61.2991 123.643 61.2991 125.607C61.2991 127.588 62.8954 129.178 64.8446 129.178ZM64.7437 119.074C65.1461 119.071 65.5438 118.988 65.9141 118.832C66.2844 118.675 66.6201 118.447 66.902 118.161C67.1839 117.875 67.4065 117.537 67.5571 117.165C67.7077 116.793 67.7833 116.396 67.7796 115.995C67.7796 114.305 66.4185 112.915 64.7437 112.915C63.069 112.915 61.7079 114.288 61.7079 115.995C61.7079 117.702 63.069 119.074 64.7437 119.074ZM66.4129 110.673C67.8524 110.673 68.995 109.496 68.995 108.062C68.995 106.628 67.83 105.451 66.4129 105.451C64.9734 105.451 63.8308 106.628 63.8308 108.062C63.8308 109.496 64.9734 110.673 66.4129 110.673ZM76.7469 109.267C78.4441 109.267 79.822 107.872 79.822 106.165C79.822 104.458 78.4441 103.063 76.7469 103.063C75.0498 103.063 73.6719 104.458 73.6719 106.165C73.6689 106.982 73.9907 107.767 74.5669 108.348C75.1431 108.929 75.9269 109.26 76.7469 109.267ZM88.0892 104.865C90.0608 104.865 91.6739 103.236 91.6739 101.256C91.6829 100.308 91.3133 99.3946 90.6464 98.7177C89.9795 98.0408 89.0699 97.6555 88.1178 97.6465H88.0892C86.1176 97.6465 84.5045 99.2755 84.5045 101.256C84.5008 101.726 84.5902 102.193 84.7675 102.629C84.9448 103.065 85.2066 103.461 85.5379 103.797C85.8692 104.132 86.2636 104.399 86.6984 104.582C87.1333 104.765 87.6002 104.862 88.0724 104.865H88.0892ZM90.789 116.324C91.8676 116.322 92.9012 115.893 93.6628 115.132C94.4243 114.372 94.8514 113.341 94.8503 112.266C94.8492 111.192 94.4199 110.162 93.6568 109.403C92.8937 108.644 91.8592 108.217 90.7806 108.217C89.7019 108.217 88.6674 108.644 87.9043 109.403C87.1412 110.162 86.7119 111.192 86.7108 112.266C86.7097 113.341 87.1368 114.372 87.8983 115.132C88.6599 115.893 89.6935 116.322 90.7722 116.324H90.789ZM76.8926 119.376C78.8642 119.376 80.4381 117.769 80.4381 115.783C80.4381 113.797 78.8418 112.19 76.8926 112.19C76.4241 112.193 75.9607 112.288 75.5289 112.469C75.0972 112.65 74.7055 112.914 74.3763 113.247C74.047 113.579 73.7867 113.972 73.6101 114.404C73.4335 114.836 73.3441 115.299 73.3471 115.766V115.783C73.3404 116.248 73.4258 116.71 73.5983 117.142C73.7709 117.574 74.0272 117.969 74.3527 118.302C74.6782 118.636 75.0665 118.902 75.4953 119.086C75.9242 119.27 76.3853 119.369 76.8523 119.375H76.8926V119.376ZM37.6847 114.048C41.9192 114.048 45.3695 110.572 45.3695 106.294C45.3695 102.015 41.9192 98.5391 37.6847 98.5391C33.4503 98.5391 30 102.02 30 106.299C30 110.578 33.4503 114.048 37.6847 114.048ZM55.1266 100.202C58.773 100.202 61.7079 97.2169 61.7079 93.5461C61.7079 89.8753 58.7506 86.8907 55.1266 86.8907C53.3694 86.9025 51.6888 87.609 50.4545 88.855C49.2203 90.1009 48.5335 91.7841 48.5453 93.5344V93.5461C48.5453 97.2392 51.5027 100.202 55.1266 100.202ZM48.3213 83.1306C51.9452 83.1306 54.8634 80.1683 54.8634 76.5142C54.8634 72.8601 51.9284 69.8978 48.3213 69.8978C47.4563 69.9036 46.6009 70.079 45.804 70.414C45.0071 70.7491 44.2842 71.2372 43.6767 71.8505C43.0692 72.4638 42.589 73.1903 42.2634 73.9885C41.9378 74.7867 41.7733 75.641 41.7792 76.5025V76.5142C41.7614 78.2511 42.437 79.9239 43.6575 81.1647C44.8779 82.4055 46.5432 83.1126 48.2871 83.1306H48.3213ZM65.1358 75.0414C68.2276 75.0414 70.7538 72.5087 70.7538 69.3678C70.7538 66.227 68.2332 63.6942 65.1358 63.6942C62.0384 63.6942 59.5179 66.227 59.5179 69.3678C59.5179 72.5087 62.044 75.0414 65.1358 75.0414ZM72.0084 92.0733C75.1226 92.0733 77.6431 89.5238 77.6431 86.383C77.6431 83.2422 75.1226 80.6927 72.0084 80.6927C68.8942 80.6927 66.3737 83.2422 66.3737 86.383C66.3737 89.5238 68.8942 92.0733 72.0084 92.0733ZM87.3107 88.5364C88.591 88.5259 89.8148 88.0094 90.7129 87.1004C91.611 86.1914 92.1098 84.9643 92.0996 83.689C92.1093 83.0626 91.9949 82.4405 91.7632 81.8581C91.5314 81.2757 91.1867 80.7445 90.7489 80.2948C90.311 79.8451 89.7884 79.4857 89.2111 79.2372C88.6338 78.9886 88.0129 78.8557 87.384 78.8461C86.7551 78.8365 86.1305 78.9504 85.5458 79.1812C84.9611 79.4121 84.4278 79.7554 83.9762 80.1915C83.5247 80.6276 83.1639 81.1481 82.9143 81.7231C82.6648 82.2981 82.5313 82.9165 82.5217 83.5429C82.5217 83.5919 82.5217 83.6405 82.5217 83.689C82.5069 84.9599 82.9995 86.1845 83.8912 87.0937C84.7829 88.0028 86.0006 88.5219 87.2765 88.5369L87.3107 88.5364ZM100.529 88.581C102.815 88.581 104.669 86.7177 104.669 84.4193C104.669 82.1208 102.815 80.2575 100.529 80.2575C99.4211 80.2575 98.3583 80.696 97.5747 81.4765C96.7911 82.257 96.3509 83.3155 96.3509 84.4193C96.3509 85.523 96.7911 86.5816 97.5747 87.3621C98.3583 88.1426 99.4211 88.581 100.529 88.581ZM111.451 91.0859C113.361 91.0859 114.941 89.5182 114.941 87.5713C114.941 85.6243 113.384 84.0567 111.451 84.0567C110.521 84.0639 109.632 84.4377 108.978 85.0964C108.324 85.7551 107.959 86.6449 107.962 87.5713C107.984 89.4959 109.536 91.0859 111.451 91.0859ZM112.874 78.2659C113.684 78.2602 114.459 77.9344 115.028 77.3602C115.597 76.7859 115.915 76.0101 115.91 75.2032C115.91 73.5128 114.549 72.1405 112.874 72.1405C111.199 72.1405 109.838 73.5128 109.838 75.2032C109.834 76.0101 110.151 76.7859 110.72 77.3602C111.289 77.9344 112.064 78.2602 112.874 78.2659ZM104.472 74.0707C105.4 74.0684 106.288 73.6997 106.942 73.0455C107.597 72.3914 107.963 71.5053 107.962 70.5819C107.961 69.6585 107.592 68.7733 106.936 68.1208C106.28 67.4683 105.391 67.1018 104.464 67.1018C103.537 67.1018 102.648 67.4683 101.992 68.1208C101.336 68.7733 100.967 69.6585 100.965 70.5819C100.964 71.5053 101.331 72.3914 101.985 73.0455C102.64 73.6997 103.528 74.0684 104.455 74.0707H104.472ZM93.6791 71.5268C94.7735 71.518 95.8197 71.0772 96.5883 70.3012C97.3569 69.5253 97.7851 68.4774 97.7792 67.3874C97.7792 65.0889 95.9476 63.2479 93.6791 63.2479C91.4107 63.2479 89.5791 65.1112 89.5791 67.3874C89.5747 67.9266 89.6769 68.4614 89.88 68.9612C90.0831 69.4611 90.3831 69.9162 90.7627 70.3006C91.1424 70.685 91.5944 70.9911 92.0929 71.2015C92.5914 71.4119 93.1266 71.5224 93.6679 71.5268H93.6791ZM80.4829 71.5435C83.1434 71.5435 85.2887 69.3678 85.2887 66.6956C85.2887 64.0234 83.1434 61.8477 80.4829 61.8477C77.8224 61.8477 75.6771 64.0234 75.6771 66.6956C75.6726 67.9721 76.1756 69.1985 77.076 70.1069C77.9765 71.0153 79.2013 71.5318 80.4829 71.5435ZM62.7105 59.4209C65.7239 59.4209 68.1492 56.9663 68.1492 53.9259C68.1492 50.8855 65.7071 48.4308 62.7105 48.4308C59.6971 48.4308 57.2719 50.8855 57.2719 53.9259C57.2719 56.9663 59.7139 59.4209 62.7105 59.4209ZM78.0072 56.0904C80.6677 56.0904 82.813 53.9147 82.813 51.2425C82.813 48.5703 80.6677 46.3946 78.0072 46.3946C75.3467 46.3946 73.2014 48.5703 73.2014 51.2425C73.2014 53.9147 75.3467 56.0904 78.0072 56.0904ZM91.2202 56.1518C93.5055 56.1518 95.3595 54.2885 95.3595 51.9733C95.3595 49.6581 93.5055 47.7948 91.2202 47.7948C90.6737 47.7978 90.1331 47.9079 89.6294 48.1189C89.1256 48.3299 88.6684 48.6377 88.2841 49.0246C87.8997 49.4116 87.5956 49.8702 87.3892 50.3742C87.1828 50.8782 87.0781 51.4178 87.081 51.9621V51.9733C87.0764 53.0733 87.5092 54.1303 88.2849 54.9133C89.0605 55.6964 90.1159 56.1416 91.2202 56.1518ZM102.064 58.6399C103.996 58.6399 105.554 57.0723 105.554 55.1253C105.554 53.1783 103.996 51.6107 102.064 51.6107C101.128 51.6107 100.231 51.981 99.5688 52.6401C98.9071 53.2992 98.5353 54.1932 98.5353 55.1253C98.5353 56.0574 98.9071 56.9514 99.5688 57.6105C100.231 58.2696 101.128 58.6399 102.064 58.6399ZM110.393 62.9467C111.224 62.9408 112.018 62.6067 112.602 62.0179C113.186 61.429 113.512 60.6335 113.507 59.8059C113.507 58.0597 112.107 56.665 110.393 56.665C108.679 56.665 107.279 58.0765 107.279 59.8059C107.279 61.5353 108.679 62.9467 110.393 62.9467ZM116.504 67.8895C116.842 67.8873 117.177 67.8187 117.488 67.6877C117.8 67.5567 118.083 67.3659 118.321 67.126C118.558 66.8862 118.746 66.602 118.874 66.2898C119.001 65.9776 119.066 65.6435 119.063 65.3065V65.3009C119.066 64.9639 119.003 64.6296 118.876 64.3172C118.749 64.0047 118.562 63.7201 118.325 63.4798C118.087 63.2394 117.805 63.0479 117.494 62.9162C117.182 62.7846 116.848 62.7153 116.509 62.7124H116.504C116.165 62.7146 115.831 62.7831 115.519 62.9141C115.207 63.0451 114.924 63.236 114.687 63.4758C114.449 63.7157 114.261 63.9998 114.134 64.312C114.006 64.6242 113.942 64.9583 113.944 65.2953V65.3009C113.939 65.6357 114 65.9682 114.124 66.2795C114.248 66.5908 114.432 66.8747 114.666 67.115C114.9 67.3553 115.179 67.5474 115.488 67.6802C115.797 67.813 116.128 67.8839 116.464 67.8889H116.505L116.504 67.8895Z" fill="white"/>
</g>
<defs>
<clipPath id="clip0_3799_9036">
<rect width="140" height="135" fill="white" transform="translate(30 33)"/>
</clipPath>
</defs>
</svg>
